<?xml version="1.0" encoding="UTF-8"?><svg id="Layer_1" xmlns="http://www.w3.org/2000/svg" viewBox="0 0 300 300"><defs><style>.cls-1{fill:#33454c;}.cls-1,.cls-2{stroke-width:0px;}.cls-2,.cls-3{fill:none;}.cls-3{stroke:#33454c;stroke-miterlimit:10;stroke-width:8px;}</style></defs><circle class="cls-3" cx="150" cy="143.67" r="69.19"/><path class="cls-2" d="M87.83,64.8c-.31-.09-.6-.17-.66-.18-9.45-2.56-17.02-2.67-22.5-2.14-.61,7.6.14,15.28,2.02,22.46.06.23.11.42.17.65,2.45,8.94,6.7,17.05,12.42,23.19.39.42.8.83,1.21,1.24,6.22,6.13,14.68,10.65,23.97,13.17.04.01.06.03.08.03,7.18,1.93,14.85,2.72,22.36,2.2l.03.03c.34-3.19.51-7.11.14-11.55-.35-4.31-1.12-8.04-1.95-11.07l.04-.04-.03-.03-.04.04s-.01-.07-.03-.11l.03.03c-2.45-9.31-6.88-17.79-12.96-24.07l1.24-1.24-.03-.03-1.24,1.24c-6.19-6.39-14.76-11.12-24.28-13.82Z"/><path class="cls-1" d="M94.81,58.83c-15.1-6.15-29.44-7.06-40.14-6.47-.11,16.1,2.24,29.45,6.16,40.17,3.58,9.76,8.49,17.31,14.07,22.79,5.2,5.09,12.18,9.53,20.98,12.86,10.66,4.03,23.97,6.4,39.96,6.26.34-6.07.23-13.66-1.13-22.23-1.11-6.99-2.81-13.05-4.55-18.02l-.03-.03c-3.24-8.83-7.61-15.82-12.66-21.07-7.8-8.11-15.99-11.54-22.66-14.25ZM113.38,77.4l-1.24,1.24c6.08,6.27,10.5,14.76,12.96,24.07l-.03-.03s.03.08.03.11l.04-.04.03.03-.04.04c.82,3.03,1.59,6.76,1.95,11.07.37,4.44.2,8.36-.14,11.55l-.03-.03c-7.52.52-15.19-.27-22.36-2.2-.03,0-.04-.01-.08-.03-9.29-2.52-17.75-7.04-23.97-13.17-.41-.41-.82-.82-1.21-1.24-5.72-6.15-9.97-14.25-12.42-23.19-.06-.23-.11-.42-.17-.65-1.88-7.18-2.62-14.86-2.02-22.46,5.49-.53,13.05-.42,22.5,2.14.06.02.35.1.66.18,9.52,2.69,18.09,7.43,24.28,13.82l1.24-1.24.03.03Z"/><path class="cls-2" d="M66.8,204.52c-.09.31-.17.6-.18.66-2.56,9.45-2.67,17.02-2.14,22.5,7.6.61,15.28-.14,22.46-2.02.23-.06.42-.11.65-.17,8.94-2.45,17.05-6.7,23.19-12.42.42-.39.83-.8,1.24-1.21,6.13-6.22,10.65-14.68,13.17-23.97.01-.04.03-.06.03-.08,1.93-7.18,2.72-14.85,2.2-22.36l.03-.03c-3.19-.34-7.11-.51-11.55-.14-4.31.35-8.04,1.12-11.07,1.95l-.04-.04-.03.03.04.04s-.07.01-.11.03l.03-.03c-9.31,2.45-17.79,6.88-24.07,12.96l-1.24-1.24-.03.03,1.24,1.24c-6.39,6.19-11.12,14.76-13.82,24.28Z"/><path class="cls-1" d="M60.84,197.54c-6.15,15.1-7.06,29.44-6.47,40.14,16.1.11,29.45-2.24,40.17-6.16,9.76-3.58,17.31-8.49,22.79-14.07,5.09-5.2,9.53-12.18,12.86-20.98,4.03-10.66,6.4-23.97,6.26-39.96-6.07-.34-13.66-.23-22.23,1.13-6.99,1.11-13.05,2.81-18.02,4.55l-.03.03c-8.83,3.24-15.82,7.61-21.07,12.66-8.11,7.8-11.54,15.99-14.25,22.66ZM79.41,178.97l1.24,1.24c6.27-6.08,14.76-10.5,24.07-12.96l-.03.03s.08-.03.11-.03l-.04-.04.03-.03.04.04c3.03-.82,6.76-1.59,11.07-1.95,4.44-.37,8.36-.2,11.55.14l-.03.03c.52,7.52-.27,15.19-2.2,22.36,0,.03-.01.04-.03.08-2.52,9.29-7.04,17.75-13.17,23.97-.41.41-.82.82-1.24,1.21-6.15,5.72-14.25,9.97-23.19,12.42-.23.06-.42.11-.65.17-7.18,1.88-14.86,2.62-22.46,2.02-.53-5.49-.42-13.05,2.14-22.5.02-.06.1-.35.18-.66,2.69-9.52,7.43-18.09,13.82-24.28l-1.24-1.24.03-.03Z"/><path class="cls-2" d="M212.07,64.8c.31-.09.6-.17.66-.18,9.45-2.56,17.02-2.67,22.5-2.14.61,7.6-.14,15.28-2.02,22.46-.06.23-.11.42-.17.65-2.45,8.94-6.7,17.05-12.42,23.19-.39.42-.8.83-1.21,1.24-6.22,6.13-14.68,10.65-23.97,13.17-.04.01-.06.03-.08.03-7.18,1.93-14.85,2.72-22.36,2.2l-.03.03c-.34-3.19-.51-7.11-.14-11.55.35-4.31,1.12-8.04,1.95-11.07l-.04-.04.03-.03.04.04s.01-.07.03-.11l-.03.03c2.45-9.31,6.88-17.79,12.96-24.07l-1.24-1.24.03-.03,1.24,1.24c6.19-6.39,14.76-11.12,24.28-13.82Z"/><path class="cls-1" d="M182.43,73.09c-5.05,5.25-9.42,12.24-12.66,21.07l-.03.03c-1.74,4.97-3.44,11.03-4.55,18.02-1.37,8.58-1.47,16.16-1.13,22.23,15.99.14,29.3-2.23,39.96-6.26,8.8-3.33,15.78-7.77,20.98-12.86,5.58-5.47,10.49-13.03,14.07-22.79,3.92-10.72,6.27-24.07,6.16-40.17-10.71-.59-25.05.33-40.14,6.47-6.66,2.71-14.85,6.15-22.66,14.25ZM186.55,77.37l1.24,1.24c6.19-6.39,14.76-11.12,24.28-13.82.31-.09.6-.17.66-.18,9.45-2.56,17.02-2.67,22.5-2.14.61,7.6-.14,15.28-2.02,22.46-.06.23-.11.42-.17.65-2.45,8.94-6.7,17.05-12.42,23.19-.39.42-.8.83-1.21,1.24-6.22,6.13-14.68,10.65-23.97,13.17-.04.01-.06.03-.08.03-7.18,1.93-14.85,2.72-22.36,2.2l-.03.03c-.34-3.19-.51-7.11-.14-11.55.35-4.31,1.12-8.04,1.95-11.07l-.04-.04.03-.03.04.04s.01-.07.03-.11l-.03.03c2.45-9.31,6.88-17.79,12.96-24.07l-1.24-1.24.03-.03Z"/><path class="cls-2" d="M233.09,204.52c.09.31.17.6.18.66,2.56,9.45,2.67,17.02,2.14,22.5-7.6.61-15.28-.14-22.46-2.02-.23-.06-.42-.11-.65-.17-8.94-2.45-17.05-6.7-23.19-12.42-.42-.39-.83-.8-1.24-1.21-6.13-6.22-10.65-14.68-13.17-23.97-.01-.04-.03-.06-.03-.08-1.93-7.18-2.72-14.85-2.2-22.36l-.03-.03c3.19-.34,7.11-.51,11.55-.14,4.31.35,8.04,1.12,11.07,1.95l.04-.04.03.03-.04.04s.07.01.11.03l-.03-.03c9.31,2.45,17.79,6.88,24.07,12.96l1.24-1.24.03.03-1.24,1.24c6.39,6.19,11.12,14.76,13.82,24.28Z"/><path class="cls-1" d="M224.8,174.88c-5.25-5.05-12.24-9.42-21.07-12.66l-.03-.03c-4.97-1.74-11.03-3.44-18.02-4.55-8.58-1.37-16.16-1.47-22.23-1.13-.14,15.99,2.23,29.3,6.26,39.96,3.33,8.8,7.77,15.78,12.86,20.98,5.47,5.58,13.03,10.49,22.79,14.07,10.72,3.92,24.07,6.27,40.17,6.16.59-10.71-.33-25.05-6.47-40.14-2.71-6.66-6.15-14.85-14.25-22.66ZM220.51,179l-1.24,1.24c6.39,6.19,11.12,14.76,13.82,24.28.09.31.17.6.18.66,2.56,9.45,2.67,17.02,2.14,22.5-7.6.61-15.28-.14-22.46-2.02-.23-.06-.42-.11-.65-.17-8.94-2.45-17.05-6.7-23.19-12.42-.42-.39-.83-.8-1.24-1.21-6.13-6.22-10.65-14.68-13.17-23.97-.01-.04-.03-.06-.03-.08-1.93-7.18-2.72-14.85-2.2-22.36l-.03-.03c3.19-.34,7.11-.51,11.55-.14,4.31.35,8.04,1.12,11.07,1.95l.04-.04.03.03-.04.04s.07.01.11.03l-.03-.03c9.31,2.45,17.79,6.88,24.07,12.96l1.24-1.24.03.03Z"/></svg>